<svg xmlns="http://www.w3.org/2000/svg" height="800" width="1200" viewBox="-46.2681 -24.208 400.9902 145.248"><path d="M44.283 19.817c.457-.571.617-1.592.617-1.592H17.485s.339 1.131.625 1.592zm-1.593 2.326c.51-.454 1.029-1.363 1.029-1.363H18.616s.282.682.911 1.363zm-1.98 2.104c.621-.339 1.131-1.025 1.131-1.025H20.38s.511.571 1.016 1.025zm-2.506 1.987c.621-.233 1.307-.799 1.307-.799H22.769s0 .123 1.188.799zm-12.321 1.245s1.763 1.03 5.225 1.03c3.466 0 5.674-1.03 5.674-1.03z" fill="#A78337"/><path d="M25.601 29.81s2.103.11 3.344 1.075c1.196 1.027 2.106 2.726 2.106 2.726s.739-1.637 1.935-2.493c1.188-.916 3.123-1.308 3.123-1.308h21.633L62 36.113H42.576s-1.36.055-3.405 1.255c-1.082.615-1.882 1.696-1.882 1.696s-.159.512-.392.79c-.229.29-.4.521-.677.627-.29.123-.229.055-.229.055H25.883s-.409-.161-.621-.51c-.229-.339-.061-.222-.285-.5-.171-.282-.572-1.028-2.103-2.048-1.588-1.033-3.124-1.136-3.124-1.136H0l4.303-6.532z" fill="#003974"/><path d="M10.321 38.722V70.97s.115 2.85 2.502 6.704c2.384 3.861 5.842 5.625 5.842 5.625l2.73-4.258s-2.379-1.425-4.2-4.152c-1.755-2.718-1.755-5.054-1.755-5.054V38.722zm36.57-.111V69.72s-.396 3.127-1.874 5.34c-1.478 2.271-3.923 4.09-3.923 4.09l2.625 4.198s3.968-2.891 5.895-5.961c1.935-3.062 2.396-7.667 2.396-7.667V38.611z" fill="#003974"/><path d="M2.213 38.722v32.367s.335 5.001 3.454 10.222c3.135 5.217 8.802 8.855 8.802 8.855l2.674-4.255s-3.637-1.931-6.528-6.368c-2.964-4.482-3.123-8.573-3.123-8.573V38.722z" fill="#003974"/><path d="M25.601 42.128v34.183s-.126.117-.167.62c-.061.518-.4.861-.4.861l-11.41 18.905h34.978l-11.418-19.31-.338-.857-.115-.902V42.189h-4.258v34.7s0 .499.171.903c.106.399.343 1.017.343 1.017l7.034 11.581H22.192l6.924-11.524s.229-.396.4-.964c.118-.514.167-1.013.167-1.013V42.128z" fill="#A78337"/><path d="M54.783 38.611V70.41s-.049 4.087-3.062 8.799c-3.008 4.718-6.475 6.702-6.475 6.702l2.56 4.312s5.217-3.294 8.516-8.516c3.237-5.226 3.633-11.297 3.633-11.297V38.611z" fill="#003974"/><path d="M17.31 17.315s-1.755-9.59 5.283-14.367c0 0 3.18-2.948 8.34-2.948 5.515 0 8.688 2.892 8.688 2.892 7.667 5.616 5.397 14.423 5.397 14.423z" fill="#A78337"/><path d="M92.318 12.608v9.311h-1.992v-.986H79.779v.986h-1.995v-9.202c-.355.157-.963.38-1.82.666l-1.031-1.909c2.602-.629 4.868-1.752 6.797-3.368h-6.626v-1.78h8.812v-1.74c-3.217.085-5.524.131-6.924.131l-.708-1.974c.814.029 1.823.042 3.023.042 5.703 0 10.018-.328 12.948-.988l.922 1.76c-1.945.4-4.36.723-7.247.966v1.802h9.048v1.78h-6.905c1.629 1.572 3.988 2.666 7.077 3.282l-.945 1.952c-.285-.131-.6-.245-.943-.343-.342-.102-.658-.229-.944-.388zm-13.3-.491h4.891V8.169c-1.245 1.773-2.875 3.087-4.891 3.948zm11.304 1.8H79.769v1.63h10.553zM79.769 19.15h10.553v-1.889H79.769zm6.156-11.002v3.968h5.297c-2.188-.86-3.954-2.182-5.297-3.968zm21 7.109c-.585 2.319-1.494 4.449-2.723 6.393l-1.717-1.759c1.26-1.786 2.117-3.695 2.574-5.725zm-1.329-3.474c-1.159-.985-2.159-1.757-3.002-2.314l1.286-1.61c1.017.544 2.074 1.238 3.174 2.079zm2.097-7.656h2.854V1.896h1.959v2.232h3.911V1.896h1.935v2.232h3.539v1.694h-3.539v2.209h3.86v1.8h-4.097c.571 1.16 2.017 2.311 4.333 3.454l-.923 1.909c-1.315-.787-2.403-1.566-3.259-2.338v4.397h-6.906v1.372c0 .5.251.751.751.751h6.369c.6 0 .957-.222 1.071-.666.115-.457.223-1.25.323-2.38l2.06.751c-.229 1.987-.537 3.181-.923 3.581-.372.388-1.108.58-2.208.58h-6.948c-.916 0-1.56-.171-1.931-.514-.356-.357-.535-1.022-.535-1.994v-4.805c-.359.299-1.016.751-1.973 1.352l-1.224-1.803c2.374-1.071 3.875-2.279 4.503-3.625h-3.431v-1.8h3.282V5.907h-2.854V4.749l-1.309 1.629c-1.172-1.071-2.237-1.908-3.195-2.508l1.415-1.588c1.217.773 2.246 1.479 3.089 2.124v-.279zm3.651 9.33v2.103h4.934v-2.103zm1.631-3.625c-.316.731-.736 1.375-1.266 1.931h5.468c-.471-.528-.908-1.171-1.308-1.931zm-.473-3.903v2.102h3.905V5.929zM133.96 4.81c-.756.144-1.864.266-3.325.364l-.449-1.8c3.202-.156 5.954-.671 8.256-1.544l.729 1.76c-1.029.356-2.109.65-3.238.879v3.025h3.259v1.844h-3.259v.193c1.6 1.486 2.809 2.674 3.625 3.56l-1.201 1.845c-.431-.6-.857-1.143-1.288-1.63-.373-.443-.751-.922-1.136-1.437v9.953l-1.974.085V13.09c-.542 1.372-1.516 2.975-2.917 4.805l-1.202-1.931c1.802-2.046 3.153-4.254 4.053-6.627h-3.925V7.493h3.99V4.81zm4.963 12.292v-1.995l7.186-1.074V1.7h1.993v12.099l1.932-.323v1.953l-1.932.321v6.156h-1.993v-5.898zm4.669-4.355c-1.473-1.229-2.774-2.18-3.903-2.854l1.266-1.437c1.071.559 2.394 1.437 3.969 2.64zm.385-5.213c-1.585-1.271-2.874-2.208-3.86-2.809l1.287-1.416c.931.517 2.238 1.388 3.925 2.616zm21.363.517h-2.531v3.793c1.144-.372 1.98-.686 2.506-.943v2.102c-.44.244-1.277.572-2.506.987v5.255c0 1.015-.146 1.686-.433 2.017-.302.343-.979.514-2.041.514h-1.698l-.49-2.168 1.862.066c.474 0 .71-.237.71-.708v-4.375c-1.217.314-2.173.558-2.874.729l-.517-2.318c1.243-.156 2.373-.371 3.391-.642V8.051h-3.175V6.096h3.175V1.7h2.11v4.396h2.531V4.725h4.609V1.7h2.126v3.025h5.063v1.952h-5.063v2.874h4.332v1.78c-.188.774-.657 1.78-1.412 3.025-.747 1.245-1.527 2.225-2.343 2.939 1.433 1.172 3.044 2.009 4.85 2.509l-1.095 2.017c-1.887-.615-3.658-1.681-5.319-3.196-2.258 1.728-4.417 2.81-6.479 3.239l-1.176-1.951c2.058-.459 4.114-1.38 6.173-2.768-1.099-1.115-2.181-2.638-3.233-4.568l1.78-.708c.983 1.745 1.967 3.111 2.955 4.096 1.462-1.157 2.498-2.638 3.111-4.439h-8.517V9.55h4.246V6.676h-4.609zm32.28 1.318c.331 1.745 1.103 3.573 2.315 5.491 1.217 1.916 2.891 3.574 5.021 4.977l-1.648 1.973c-3.862-2.531-6.507-6.679-7.937-12.44h-.343c-.96 5.162-3.841 9.321-8.646 12.484l-1.629-2.04c2.028-1.157 3.776-2.68 5.233-4.568 1.441-1.886 2.339-3.837 2.683-5.854h-7.402V7.117h7.766c.184-1.302.277-3.095.277-5.384h2.254c0 2.46-.058 4.254-.172 5.384h9.092v2.274zm30.597 4.001v1.564c-1.257.672-2.809 1.294-4.653 1.866h8.9v1.737h-8.9v.879c0 1.53-.653 2.295-1.952 2.295h-3.15l-.495-1.736 2.936.085c.433 0 .646-.215.646-.644v-.879h-9.309V16.8h9.309v-.923c.988-.171 2.237-.477 3.756-.922h-9.03V13.37zm1.896-.923H214.62V15.6h-1.906v-4.847h1.069l-.237-8.237c1.861-.057 3.438-.266 4.72-.622l.947 1.585c-.801.273-2.074.465-3.821.58l.065 1.094h3.347v1.46h-3.282l.021 1.222h3.262v1.48h-3.217l.041 1.437h13.432l.024-1.437h-3.005v-1.48h3.07l.041-1.222h-3.111v-1.46h3.151l.025-1.18h-3.414V2.279h5.3l-.237 8.474h1.144V15.6h-1.935v-3.153zm-7.431-7.722c-.711.457-1.551.895-2.507 1.31l-1.095-1.438c1.201-.329 1.989-.623 2.36-.88-.358-.286-.845-.62-1.462-1.008l1.16-1.008c.56.359 1.127.751 1.697 1.18.613-.414 1.05-.8 1.308-1.157l1.068.965c-.31.429-.734.815-1.265 1.158.285.257.669.637 1.14 1.136l-1.311.966c-.57-.816-.934-1.224-1.093-1.224zm.131 4.397c-.657.457-1.494.857-2.507 1.2l-.923-1.437c.984-.212 1.73-.471 2.229-.772-.285-.213-.767-.556-1.437-1.028l1.114-.943c.274.184.523.343.752.472.273.185.571.406.901.663.425-.269.923-.714 1.479-1.328l1.135.965c-.526.529-1.013.958-1.453 1.286.412.359.82.737 1.221 1.138l-1.376 1.05c-.654-.844-1.037-1.266-1.135-1.266zM81.254 46.019h-1.965V32.053h-3.744v-1.798h9.451v1.798h-3.742zm14.802-9.408v-6.357h1.966v15.764h-1.966V38.45h-7.505v7.569h-1.964V30.254h1.964v6.357zm5.019-6.357h8.467v1.798h-6.503v4.412h6.315v1.797h-6.315v5.959h6.503v1.798h-8.467zm26.656 6.357v-6.357h1.965v15.764h-1.965V38.45h-7.505v7.569h-1.965V30.254h1.965v6.357zm20.427 1.524c0 4.685-3.7 8.218-8.259 8.218s-8.259-3.533-8.259-8.218c0-4.515 3.741-8.215 8.259-8.215 4.515 0 8.259 3.7 8.259 8.215zm-1.967 0c0-3.47-2.591-6.376-6.292-6.376-3.702 0-6.292 2.906-6.292 6.376 0 3.597 2.884 6.376 6.292 6.376 3.407.001 6.292-2.779 6.292-6.376zm3.89-8.634l11.83 12.398V30.254h1.969v16.413l-11.834-12.398v11.75h-1.965zm31.172 8.573v.627c0 4.328-3.054 7.652-7.463 7.652-4.412 0-7.969-3.805-7.969-8.174 0-4.538 3.643-8.259 8.173-8.259 2.45 0 4.875 1.107 6.422 3.054l-1.38 1.315c-1.131-1.547-3.032-2.572-4.956-2.572-3.531 0-6.29 2.864-6.29 6.397 0 3.306 2.718 6.441 6.123 6.441 2.449 0 5.078-2.114 5.164-4.683h-4.078v-1.798zm17.057-7.82h2.572l-7.087 7.087 7.213 8.677h-2.653l-5.94-7.338-.792.752v6.585h-1.967V30.254h1.967v6.835zm19.506 7.881c0 4.685-3.698 8.218-8.255 8.218s-8.259-3.533-8.259-8.218c0-4.515 3.744-8.215 8.259-8.215 4.515 0 8.255 3.7 8.255 8.215zm-1.96 0c0-3.47-2.596-6.376-6.295-6.376s-6.295 2.906-6.295 6.376c0 3.597 2.886 6.376 6.295 6.376 3.405.001 6.295-2.779 6.295-6.376zm3.887-8.634l11.831 12.398V30.254h1.967v16.413l-11.834-12.398v11.75h-1.964zm31.173 8.573v.627c0 4.328-3.055 7.652-7.463 7.652-4.417 0-7.969-3.805-7.969-8.174 0-4.538 3.637-8.259 8.173-8.259 2.45 0 4.875 1.107 6.422 3.054l-1.381 1.315c-1.13-1.547-3.033-2.572-4.955-2.572-3.531 0-6.292 2.864-6.292 6.397 0 3.306 2.72 6.441 6.124 6.441 2.445 0 5.079-2.114 5.164-4.683h-4.077v-1.798zM78.704 55.335v9.307c0 2.572.773 4.952 3.805 4.952s3.805-2.38 3.805-4.952v-9.307h1.966v9.977c0 3.47-2.153 6.124-5.771 6.124-3.617 0-5.771-2.654-5.771-6.124v-9.977zm12.314-.752l11.833 12.399V55.335h1.965V71.75L92.983 59.352v11.749h-1.966V54.583zm18.712 16.518h-1.966V55.335h1.966zm8.362-4.099l4.683-11.667h2.153l-6.836 16.603-6.858-16.603h2.154zm8.384-11.667h8.467v1.8h-6.501v4.413h6.314v1.796h-6.314v5.961h6.501v1.796h-8.467zm20.907 15.766h-2.384l-4.641-6.67h-.815v6.67h-1.966V55.335h2.384c1.402 0 2.905.024 4.161.734 1.316.771 2.068 2.257 2.068 3.764 0 2.254-1.505 4.14-3.783 4.409zm-7.84-8.299h.628c2.005 0 4.182-.381 4.182-2.888 0-2.465-2.344-2.824-4.286-2.824h-.523v5.712zm16.6-4.476c-.584-.983-1.338-1.485-2.53-1.485-1.255 0-2.634.857-2.634 2.236 0 1.238 1.213 1.883 2.196 2.259l1.129.44c2.235.878 3.908 2.11 3.908 4.743 0 2.867-2.215 4.916-5.037 4.916-2.552 0-4.537-1.883-4.872-4.409l1.985-.42c-.021 1.734 1.359 2.987 3.054 2.987 1.695 0 2.906-1.42 2.906-3.074 0-1.689-1.359-2.425-2.719-2.987l-1.087-.458c-1.797-.775-3.428-1.8-3.428-3.997 0-2.551 2.258-4.078 4.642-4.078 1.755 0 3.198.857 4.055 2.385zm6.335 12.775h-1.963V55.335h1.963zm7.401 0h-1.967V57.135h-3.74v-1.8h9.447v1.8h-3.74zm3.868-15.766h2.258l3.87 6.736 3.865-6.736h2.257l-5.143 8.907V71.1h-1.964v-6.858zm35.479 7.882c0 4.684-3.698 8.219-8.258 8.219-4.561 0-8.26-3.535-8.26-8.219 0-4.515 3.744-8.218 8.26-8.218 4.519 0 8.258 3.703 8.258 8.218zm-1.968 0c0-3.469-2.588-6.376-6.29-6.376-3.703 0-6.292 2.907-6.292 6.376 0 3.598 2.883 6.377 6.292 6.377 3.408 0 6.29-2.78 6.29-6.377zm6.026-6.082v4.43h5.476v1.8h-5.476v7.736h-1.967V55.335h7.634v1.8zm21.424 1.191c-.58-.983-1.335-1.485-2.526-1.485-1.254 0-2.634.857-2.634 2.236 0 1.238 1.213 1.883 2.196 2.259l1.127.44c2.237.878 3.911 2.11 3.911 4.743 0 2.867-2.217 4.916-5.038 4.916-2.555 0-4.539-1.883-4.874-4.409l1.988-.42c-.021 1.734 1.359 2.987 3.049 2.987 1.699 0 2.907-1.42 2.907-3.074 0-1.689-1.355-2.425-2.719-2.987l-1.087-.458c-1.795-.775-3.428-1.8-3.428-3.997 0-2.551 2.262-4.078 4.646-4.078 1.756 0 3.196.857 4.054 2.385zm15.914.021c-1.127-1.004-2.677-1.547-4.16-1.547-3.531 0-6.233 2.948-6.233 6.438 0 3.455 2.679 6.401 6.189 6.401 1.551 0 3.033-.587 4.204-1.633v2.319c-1.212.71-2.76 1.11-4.14 1.11-4.494 0-8.214-3.576-8.214-8.132 0-4.662 3.74-8.305 8.382-8.305 1.38 0 2.78.336 3.972 1.07zm4.454 12.754h-1.963V55.335h1.963zm3.156-15.766h8.467v1.8H260.2v4.413h6.311v1.796H260.2v5.961h6.499v1.796h-8.467zm10.916-.752l11.831 12.399V55.335h1.968V71.75l-11.835-12.398v11.749h-1.964zm28.283 3.764c-1.127-1.004-2.675-1.547-4.156-1.547-3.535 0-6.233 2.948-6.233 6.438 0 3.455 2.674 6.401 6.188 6.401 1.547 0 3.033-.587 4.201-1.633v2.319c-1.209.71-2.759 1.11-4.14 1.11-4.491 0-8.214-3.576-8.214-8.132 0-4.662 3.739-8.305 8.386-8.305 1.38 0 2.776.336 3.968 1.07zm2.552-3.012h8.471v1.8h-6.507v4.413h6.318v1.796h-6.318v5.961h6.507v1.796h-8.471zM79.247 92.231l-1.796 3.952h-2.114l7.526-16.436 7.528 16.436h-2.113l-1.798-3.952zm3.616-8.172l-2.8 6.377h5.603zm8.865-4.394l11.833 12.398V80.417h1.966v16.415L93.694 84.434v11.75h-1.966zm16.642.752h3.262c4.83 0 8.845 2.556 8.845 7.802 0 5.372-3.931 7.965-8.908 7.965h-3.199zm1.966 13.97h.69c4.015 0 7.485-1.506 7.485-6.087 0-4.601-3.47-6.083-7.485-6.083h-.69zm22.808 1.797h-1.962V82.217h-3.745v-1.8h9.452v1.8h-3.745zm5.5-15.767h8.468v1.8h-6.503v4.414h6.314v1.796h-6.314v5.96h6.503v1.797h-8.468zm22.581 3.013c-1.131-1.005-2.679-1.547-4.162-1.547-3.533 0-6.229 2.947-6.229 6.438 0 3.453 2.675 6.401 6.187 6.401 1.546 0 3.032-.589 4.204-1.633v2.318c-1.216.71-2.759 1.11-4.143 1.11-4.492 0-8.215-3.576-8.215-8.133 0-4.661 3.741-8.303 8.383-8.303 1.378 0 2.782.335 3.975 1.07zm11.856 3.346v-6.359h1.96v15.767h-1.96v-7.569h-7.507v7.569h-1.964V80.417h1.964v6.359zm4.825-7.111l11.836 12.398V80.417h1.963v16.415l-11.83-12.398v11.75h-1.969zm32.218 8.635c0 4.683-3.698 8.218-8.259 8.218-4.556 0-8.259-3.535-8.259-8.218 0-4.516 3.743-8.218 8.259-8.218 4.52 0 8.259 3.702 8.259 8.218zm-1.962 0c0-3.47-2.593-6.376-6.296-6.376-3.698 0-6.291 2.906-6.291 6.376 0 3.597 2.882 6.377 6.291 6.377 3.408 0 6.296-2.781 6.296-6.377zm6.041 6.087h4.789v1.797h-6.753V80.417h1.964zm21.698-6.087c0 4.683-3.698 8.218-8.255 8.218-4.556 0-8.258-3.535-8.258-8.218 0-4.516 3.743-8.218 8.258-8.218 4.516 0 8.255 3.702 8.255 8.218zm-1.964 0c0-3.47-2.592-6.376-6.291-6.376-3.703 0-6.295 2.906-6.295 6.376 0 3.597 2.887 6.377 6.295 6.377 3.405 0 6.291-2.781 6.291-6.377zm18.44-.061v.628c0 4.327-3.054 7.65-7.463 7.65-4.409 0-7.969-3.805-7.969-8.173 0-4.54 3.642-8.263 8.178-8.263 2.445 0 4.87 1.111 6.422 3.054l-1.381 1.318c-1.131-1.548-3.037-2.571-4.955-2.571-3.536 0-6.295 2.861-6.295 6.396 0 3.307 2.718 6.442 6.122 6.442 2.45 0 5.084-2.115 5.169-4.687h-4.078v-1.796h6.25zm.523-7.822h2.262l3.862 6.735 3.87-6.735h2.262l-5.145 8.908v6.858h-1.967v-6.858z" fill="#003974"/></svg>